<svg width="18" height="18" viewBox="0 0 18 18" fill="none" xmlns="http://www.w3.org/2000/svg">
<path d="M8.98016 16.4262C13.0727 16.4262 16.3904 13.1085 16.3904 9.01596C16.3904 4.92339 13.0727 1.60571 8.98016 1.60571C4.8876 1.60571 1.56992 4.92339 1.56992 9.01596C1.56992 13.1085 4.8876 16.4262 8.98016 16.4262Z" fill="#5E60CE"/>
<path d="M8.96431 1.85955C10.3766 1.85955 11.7571 2.27834 12.9314 3.06294C14.1056 3.84755 15.0208 4.96275 15.5613 6.2675C16.1017 7.57225 16.2431 9.00797 15.9676 10.3931C15.6921 11.7782 15.012 13.0505 14.0134 14.0491C13.0148 15.0478 11.7425 15.7278 10.3573 16.0033C8.97223 16.2789 7.53651 16.1375 6.23176 15.597C4.927 15.0566 3.81181 14.1413 3.0272 12.9671C2.2426 11.7928 1.82381 10.4123 1.82381 9.00005C1.83113 7.10852 2.58577 5.29656 3.9233 3.95904C5.26082 2.62152 7.07278 1.86687 8.96431 1.85955ZM8.96431 0.272778C7.23975 0.279833 5.55595 0.797669 4.12546 1.76091C2.69497 2.72416 1.58194 4.08962 0.926861 5.68493C0.271786 7.28024 0.104042 9.03387 0.444807 10.7244C0.785572 12.415 1.61957 13.9667 2.84151 15.1837C4.06345 16.4006 5.61855 17.2283 7.31049 17.5621C9.00244 17.896 10.7554 17.7211 12.348 17.0595C13.9406 16.3979 15.3015 15.2793 16.2589 13.8449C17.2163 12.4105 17.7273 10.7246 17.7273 9.00005C17.7273 7.85096 17.5004 6.71318 17.0596 5.652C16.6187 4.59083 15.9727 3.62715 15.1585 2.81628C14.3443 2.00541 13.378 1.36331 12.3151 0.926827C11.2521 0.490346 10.1134 0.268077 8.96431 0.272778Z" fill="#5E60CE"/>
<path d="M12.4307 6.34209L8.09877 10.674L5.6163 8.19156L4.7804 9.02747L8.09877 12.3458L13.2666 7.178L12.4307 6.34209Z" fill="white"/>
</svg>
