<svg width="13" height="13" viewBox="0 0 13 13" fill="none" xmlns="http://www.w3.org/2000/svg">
<path d="M8.98268 2.60534L10.3947 4.01667M9.89068 1.36201L6.07268 5.18001C5.8754 5.37701 5.74086 5.628 5.68601 5.90134L5.33334 7.66667L7.09868 7.31334C7.37201 7.25867 7.62268 7.12467 7.82001 6.92734L11.638 3.10934C11.7527 2.99461 11.8438 2.8584 11.9058 2.7085C11.9679 2.55859 11.9999 2.39793 11.9999 2.23567C11.9999 2.07342 11.9679 1.91275 11.9058 1.76285C11.8438 1.61294 11.7527 1.47674 11.638 1.36201C11.5233 1.24728 11.3871 1.15627 11.2372 1.09417C11.0873 1.03208 10.9266 1.00012 10.7643 1.00012C10.6021 1.00012 10.4414 1.03208 10.2915 1.09417C10.1416 1.15627 10.0054 1.24728 9.89068 1.36201Z" stroke="#7C7777" stroke-width="1.33333" stroke-linecap="round" stroke-linejoin="round"/>
<path d="M10.6667 9.00004V11C10.6667 11.3537 10.5262 11.6928 10.2761 11.9428C10.0261 12.1929 9.68695 12.3334 9.33332 12.3334H1.99999C1.64637 12.3334 1.30723 12.1929 1.05718 11.9428C0.807132 11.6928 0.666656 11.3537 0.666656 11V3.66671C0.666656 3.31309 0.807132 2.97395 1.05718 2.7239C1.30723 2.47385 1.64637 2.33337 1.99999 2.33337H3.99999" stroke="#7C7777" stroke-width="1.33333" stroke-linecap="round" stroke-linejoin="round"/>
</svg>
