<svg width="226" height="87" viewBox="0 0 226 87" fill="none" xmlns="http://www.w3.org/2000/svg">
<path d="M87.7917 30.9091V41.089H62.0365V30.9091H87.7917ZM67.0246 21.5436H81.0729V57.4278C81.0729 57.9707 81.1662 58.4288 81.3529 58.8021C81.5395 59.1584 81.8279 59.4298 82.2182 59.6165C82.6084 59.7861 83.1089 59.871 83.7197 59.871C84.1439 59.871 84.6359 59.8201 85.1958 59.7183C85.7726 59.6165 86.1968 59.5316 86.4683 59.4638L88.5043 69.3383C87.8765 69.5249 86.9773 69.754 85.8066 70.0254C84.6529 70.2969 83.2786 70.4751 81.6837 70.5599C78.4601 70.7296 75.7539 70.3987 73.5652 69.5674C71.3765 68.719 69.7308 67.3872 68.628 65.5717C67.5251 63.7563 66.9907 61.4828 67.0246 58.7512V21.5436ZM111.937 70.7126C107.696 70.7126 104.065 69.8728 101.045 68.1931C98.0246 66.4964 95.7087 64.1381 94.0969 61.118C92.485 58.081 91.6791 54.5604 91.6791 50.5563C91.6791 46.5522 92.485 43.0402 94.0969 40.0201C95.7087 36.9831 98.0246 34.6248 101.045 32.9451C104.065 31.2484 107.696 30.4001 111.937 30.4001C116.179 30.4001 119.81 31.2484 122.83 32.9451C125.85 34.6248 128.166 36.9831 129.777 40.0201C131.389 43.0402 132.195 46.5522 132.195 50.5563C132.195 54.5604 131.389 58.081 129.777 61.118C128.166 64.1381 125.85 66.4964 122.83 68.1931C119.81 69.8728 116.179 70.7126 111.937 70.7126ZM112.039 60.3291C113.227 60.3291 114.253 59.9304 115.118 59.1329C115.984 58.3355 116.654 57.1987 117.129 55.7227C117.604 54.2466 117.842 52.4905 117.842 50.4545C117.842 48.4016 117.604 46.6456 117.129 45.1864C116.654 43.7103 115.984 42.5736 115.118 41.7762C114.253 40.9787 113.227 40.58 112.039 40.58C110.783 40.58 109.706 40.9787 108.807 41.7762C107.908 42.5736 107.22 43.7103 106.745 45.1864C106.27 46.6456 106.033 48.4016 106.033 50.4545C106.033 52.4905 106.27 54.2466 106.745 55.7227C107.22 57.1987 107.908 58.3355 108.807 59.1329C109.706 59.9304 110.783 60.3291 112.039 60.3291ZM152.046 70.509C149.264 70.509 146.702 69.7794 144.36 68.3203C142.036 66.8612 140.169 64.6471 138.761 61.6779C137.37 58.7088 136.674 54.9676 136.674 50.4545C136.674 45.7378 137.404 41.9034 138.863 38.9512C140.339 35.9991 142.239 33.8358 144.564 32.4615C146.905 31.0872 149.365 30.4001 151.944 30.4001C153.878 30.4001 155.575 30.7394 157.034 31.4181C158.493 32.0798 159.715 32.9705 160.699 34.0903C161.683 35.1931 162.43 36.4063 162.939 37.7296H163.142V17.8788H177.19V70H163.244V63.5866H162.939C162.396 64.91 161.615 66.0977 160.597 67.1496C159.596 68.1846 158.375 69.0075 156.932 69.6183C155.507 70.2121 153.878 70.509 152.046 70.509ZM157.238 59.7183C158.527 59.7183 159.63 59.345 160.546 58.5985C161.479 57.835 162.192 56.7661 162.684 55.3918C163.193 54.0006 163.448 52.3548 163.448 50.4545C163.448 48.5204 163.193 46.8661 162.684 45.4918C162.192 44.1006 161.479 43.0402 160.546 42.3106C159.63 41.5641 158.527 41.1908 157.238 41.1908C155.948 41.1908 154.846 41.5641 153.929 42.3106C153.03 43.0402 152.335 44.1006 151.842 45.4918C151.367 46.8661 151.13 48.5204 151.13 50.4545C151.13 52.3887 151.367 54.0515 151.842 55.4427C152.335 56.817 153.03 57.8774 153.929 58.6239C154.846 59.3535 155.948 59.7183 157.238 59.7183ZM202.92 70.7126C198.679 70.7126 195.048 69.8728 192.028 68.1931C189.008 66.4964 186.692 64.1381 185.08 61.118C183.468 58.081 182.662 54.5604 182.662 50.5563C182.662 46.5522 183.468 43.0402 185.08 40.0201C186.692 36.9831 189.008 34.6248 192.028 32.9451C195.048 31.2484 198.679 30.4001 202.92 30.4001C207.162 30.4001 210.793 31.2484 213.813 32.9451C216.833 34.6248 219.149 36.9831 220.761 40.0201C222.372 43.0402 223.178 46.5522 223.178 50.5563C223.178 54.5604 222.372 58.081 220.761 61.118C219.149 64.1381 216.833 66.4964 213.813 68.1931C210.793 69.8728 207.162 70.7126 202.92 70.7126ZM203.022 60.3291C204.21 60.3291 205.236 59.9304 206.101 59.1329C206.967 58.3355 207.637 57.1987 208.112 55.7227C208.587 54.2466 208.825 52.4905 208.825 50.4545C208.825 48.4016 208.587 46.6456 208.112 45.1864C207.637 43.7103 206.967 42.5736 206.101 41.7762C205.236 40.9787 204.21 40.58 203.022 40.58C201.767 40.58 200.689 40.9787 199.79 41.7762C198.891 42.5736 198.204 43.7103 197.728 45.1864C197.253 46.6456 197.016 48.4016 197.016 50.4545C197.016 52.4905 197.253 54.2466 197.728 55.7227C198.204 57.1987 198.891 58.3355 199.79 59.1329C200.689 59.9304 201.767 60.3291 203.022 60.3291Z" fill="#5E60CE"/>
<g clip-path="url(#clip0_1_101)">
<path d="M19.7468 23.1717C25.347 30.2811 28.3365 39.0483 28.2281 48.0444V50.1919L30.0757 51.3162C32.463 52.7614 34.2435 55.0029 35.0926 57.6323C34.3471 57.0834 33.5671 56.5813 32.7574 56.1291L27.8303 53.3626L26.945 58.946C26.8683 59.4394 26.7655 59.9285 26.637 60.4114H12.8309C12.6256 59.7798 12.4588 59.1481 12.3049 58.4913L11.1886 53.4384L6.64643 55.9648C5.88759 56.3892 5.15495 56.8574 4.45234 57.367C5.31801 54.768 7.06129 52.5391 9.39225 51.0509L11.1501 49.9266V47.9308C11.1818 38.9711 14.2072 30.2706 19.7597 23.1717H19.7468ZM19.7597 17.9167C19.4717 17.9174 19.1937 18.0205 18.977 18.2072L18.8615 18.3083C11.4626 26.4551 7.3541 36.9897 7.31364 47.9181C4.1739 49.9236 1.84982 52.9515 0.747508 56.4728C-0.354801 59.994 -0.16523 63.7846 1.28309 67.1822C2.80882 63.8648 5.35934 61.1062 8.57107 59.2997C8.89317 60.6734 9.32214 62.0206 9.85416 63.3294C9.92164 63.581 10.0712 63.8038 10.2798 63.9636C10.4885 64.1233 10.7446 64.2112 11.0089 64.2137H28.8183C29.1776 64.2137 29.5368 63.8726 29.7165 63.342C30.2357 62.0977 30.5977 60.7952 30.7943 59.464C34.0121 61.2629 36.5647 64.0237 38.0822 67.3464C39.618 63.9656 39.8557 60.151 38.7514 56.6107C37.6471 53.0703 35.2757 50.0446 32.0774 48.095C32.2043 37.1021 28.1175 26.4661 20.6322 18.3083C20.5207 18.1856 20.3843 18.0873 20.2318 18.0198C20.0792 17.9524 19.914 17.9172 19.7468 17.9167H19.7597Z" fill="#5E60CE"/>
<path d="M19.7468 46.8697C18.7613 46.8696 17.7978 46.5824 16.9779 46.0441C16.1579 45.5058 15.5182 44.7406 15.1393 43.8449C14.7604 42.9492 14.6594 41.9631 14.8489 41.0109C15.0383 40.0588 15.5099 39.1831 16.2041 38.4944C16.8983 37.8057 17.784 37.3348 18.7497 37.1409C19.7154 36.947 20.7177 37.039 21.6304 37.4051C22.543 37.7712 23.3252 38.3951 23.8782 39.1982C24.4313 40.0013 24.7305 40.9476 24.7381 41.9178V41.9178C24.7534 42.5466 24.6428 43.1722 24.4125 43.7588C24.1821 44.3455 23.8367 44.8817 23.3958 45.3369C22.9549 45.792 22.4273 46.1572 21.843 46.4115C21.2587 46.6659 20.6293 46.8044 19.9906 46.8191C19.9099 46.8319 19.8276 46.8319 19.7468 46.8191V46.8697Z" fill="#5E60CE"/>
<path d="M26.6884 67.3591C26.3673 67.349 26.0474 67.4021 25.7475 67.5153C25.4476 67.6286 25.1737 67.7996 24.9418 68.0185C24.71 68.2373 24.5248 68.4996 24.3973 68.7898C24.2698 69.0801 24.2024 69.3925 24.1992 69.7087V77.1617C24.1992 77.8116 24.4614 78.435 24.9282 78.8945C25.395 79.3541 26.0282 79.6123 26.6884 79.6123C27.3485 79.6123 27.9817 79.3541 28.4485 78.8945C28.9153 78.435 29.1776 77.8116 29.1776 77.1617V69.8097C29.1878 69.4947 29.1343 69.1808 29.0201 68.8864C28.9058 68.5919 28.7332 68.3228 28.5123 68.0947C28.2914 67.8666 28.0265 67.6841 27.7332 67.5578C27.4399 67.4315 27.1239 67.364 26.8038 67.3591H26.6884Z" fill="#5E60CE"/>
<path d="M12.8309 67.3591C12.5044 67.3421 12.1778 67.3899 11.8705 67.4997C11.5631 67.6096 11.2814 67.7791 11.0419 67.9983C10.8025 68.2175 10.6103 68.4819 10.4768 68.7758C10.3433 69.0696 10.2712 69.3869 10.2648 69.7087V77.1617C10.2648 77.8116 10.527 78.435 10.9938 78.8945C11.4606 79.3541 12.0938 79.6123 12.754 79.6123C13.4141 79.6123 14.0473 79.3541 14.5141 78.8945C14.9809 78.435 15.2432 77.8116 15.2432 77.1617V69.8097C15.2534 69.4947 15.1999 69.1808 15.0857 68.8864C14.9714 68.5919 14.7988 68.3228 14.5779 68.0947C14.357 67.8666 14.0921 67.6841 13.7988 67.5578C13.5055 67.4315 13.1895 67.364 12.8694 67.3591H12.8309Z" fill="#5E60CE"/>
<path d="M19.5672 67.3591C19.247 67.3524 18.9287 67.4078 18.6303 67.5223C18.3319 67.6367 18.0593 67.808 17.8282 68.0262C17.597 68.2443 17.4118 68.5052 17.2831 68.7939C17.1543 69.0826 17.0847 69.3934 17.078 69.7087V79.9786C17.078 80.6286 17.3402 81.2519 17.8071 81.7115C18.2739 82.1711 18.907 82.4293 19.5672 82.4293C20.2274 82.4293 20.8605 82.1711 21.3273 81.7115C21.7941 81.2519 22.0564 80.6286 22.0564 79.9786V69.8729C22.0667 69.5578 22.0131 69.244 21.8989 68.9495C21.7847 68.6551 21.6121 68.386 21.3911 68.1579C21.1702 67.9298 20.9053 67.7472 20.612 67.6209C20.3187 67.4946 20.0028 67.4271 19.6827 67.4222L19.5672 67.3591Z" fill="#5E60CE"/>
</g>
<defs>
<clipPath id="clip0_1_101">
<rect width="39.4167" height="64.5" fill="white" transform="translate(0 17.9167)"/>
</clipPath>
</defs>
</svg>
